Coordinates
version=1
nRows=15
nColumns=23
inDegrees=yes

Units are S.I. units (second, meters, Newtons, ...)
Angles are in degrees.

endheader
time	thorax_tilt	thorax_list	thorax_rotation	thorax_tx	thorax_ty	thorax_tz	sternoclavicular_r2	sternoclavicular_r3	unrotscap_r3	unrotscap_r2	acromioclavicular_r2	acromioclavicular_r3	acromioclavicular_r1	unrothum_r1	unrothum_r3	unrothum_r2	elv_angle	shoulder_elv	shoulder1_r2	shoulder_rot	elbow_flexion	pro_sup
      2.00800000	     -2.71860887	      3.90665861	     -5.77775855	     -0.40472152	      1.57524205	      0.05439605	    -12.85756528	      5.44284052	     -5.44576682	     12.85563721	     -2.60298720	     21.03573905	      9.45598625	     -9.45594260	    -21.03685390	      2.60294406	     67.69477102	     53.12277246	    -67.69484226	     21.54659172	    106.27826820	     -0.55628079
      2.01200000	     -2.93793539	      3.98180713	     -5.86943541	     -0.40511257	      1.57500173	      0.05457979	    -12.80564330	      5.42084211	     -5.42374802	     12.80372240	     -2.59239775	     20.95067009	      9.41774833	     -9.41770198	    -20.95179721	      2.59248899	     67.64025722	     52.90781237	    -67.64014422	     21.54461241	    106.26061453	     -0.53179329
      2.01600000	     -2.75997286	      3.79351518	     -6.08635904	     -0.40427937	      1.57502032	      0.05468581	    -12.57718074	      5.32405687	     -5.32696120	     12.57499034	     -2.54634807	     20.57677855	      9.24964964	     -9.24963042	    -20.57781729	      2.54599784	     67.47779876	     51.96393122	    -67.47794099	     21.65076160	    107.27558492	     -0.26320070
      2.02000000	     -2.97847487	      3.89364187	     -6.17431575	     -0.40466341	      1.57484565	      0.05491861	    -12.52473511	      5.30182584	     -5.30476370	     12.52276472	     -2.53553270	     20.49093313	      9.21109274	     -9.21108288	    -20.49210771	      2.53559098	     67.42582423	     51.74698536	    -67.42573631	     21.63994939	    107.24898461	     -0.23869168
      2.02400000	     -2.76690589	      3.74468766	     -6.37290734	     -0.40393910	      1.57504353	      0.05506325	    -12.28832086	      5.20204070	     -5.20401246	     12.28606816	     -2.48738978	     20.10356475	      9.03657210	     -9.03686288	    -20.10399141	      2.48785282	     67.24448886	     50.76861176	    -67.24460937	     21.73197429	    108.22494306	      0.04980737
      2.02800000	     -2.99573826	      3.83577361	     -6.46222749	     -0.40427069	      1.57480982	      0.05528104	    -12.23517189	      5.17920221	     -5.18210564	     12.23319452	     -2.47691452	     20.01712411	      8.99810021	     -8.99810876	    -20.01825806	      2.47695281	     67.18660961	     50.55042666	    -67.18652398	     21.72502627	    108.18736765	      0.07611125
      2.03200000	     -2.79946897	      3.62807189	     -6.65425691	     -0.40357014	      1.57484103	      0.05536097	    -11.99801302	      5.07869849	     -5.08170007	     11.99597045	     -2.42897756	     19.62908115	      8.82370412	     -8.82365379	    -19.63018880	      2.42885516	     66.96290209	     49.57083499	    -66.96301994	     21.84501001	    109.08972247	      0.38213357
      2.03600000	     -3.03139115	      3.74099036	     -6.74437878	     -0.40389272	      1.57468162	      0.05561938	    -11.94468633	      5.05615520	     -5.05907005	     11.94268346	     -2.41811043	     19.54177140	      8.78443173	     -8.78443342	    -19.54288960	      2.41812212	     66.90584137	     49.35000692	    -66.90573657	     21.83352760	    109.05074134	      0.40880922
      2.04000000	     -3.27488313	      3.82679260	     -6.87307964	     -0.40398852	      1.57453302	      0.05577202	    -11.87990071	      5.02877663	     -5.03160701	     11.87793895	     -2.40496512	     19.43581637	      8.73679376	     -8.73675737	    -19.43682354	      2.40503712	     66.83218149	     49.08203524	    -66.83205275	     21.85451853	    109.11282259	      0.44779757
      2.04400000	     -3.06559856	      3.58446111	     -7.11436462	     -0.40283886	      1.57436124	      0.05597696	    -11.63501668	      4.92491581	     -4.92794985	     11.63273477	     -2.35562876	     19.03494876	      8.55663914	     -8.55662824	    -19.03610886	      2.35517579	     66.58406770	     48.07023692	    -66.58396698	     22.13363017	    110.28607405	      0.75830451
      2.04800000	     -2.24207196	      3.46176672	     -7.09139832	     -0.40356064	      1.57591603	      0.05620729	    -11.23669424	      4.75648699	     -4.75896772	     11.23450655	     -2.27487473	     18.38328490	      8.26361828	     -8.26357486	    -18.38405150	      2.27463732	     66.18228383	     46.42455926	    -66.18239280	     21.91637312	    110.54087345	      1.31021577
      2.05200000	     -2.54898742	      3.50911836	     -7.20553804	     -0.40372627	      1.57552373	      0.05634736	    -11.19321054	      4.73795421	     -4.74067094	     11.19109844	     -2.26604084	     18.31216356	      8.23163026	     -8.23167884	    -18.31298665	      2.26587432	     66.10557561	     46.24474392	    -66.10550055	     21.92312371	    110.52382506	      1.34072103
      2.05600000	     -2.86218733	      3.55380307	     -7.33741149	     -0.40369476	      1.57517515	      0.05637789	    -11.13854828	      4.71483272	     -4.71748125	     11.13643524	     -2.25495795	     18.22270466	      8.19138447	     -8.19147595	    -18.22350186	      2.25481928	     66.01873333	     46.01881404	    -66.01874009	     21.96443701	    110.59726464	      1.38244737
      2.06000000	     -2.98429415	      3.31527725	     -7.54166951	     -0.40259313	      1.57434258	      0.05650364	    -10.98965840	      4.65158479	     -4.65456507	     10.98751340	     -2.22482658	     17.97892967	      8.08193969	     -8.08194031	    -17.98003506	      2.22465459	     65.76845001	     45.40375548	    -65.76855619	     22.25148585	    111.53266485	      1.63591884
      2.06400000	     -3.24449241	      3.45770280	     -7.65293711	     -0.40277184	      1.57438562	      0.05682304	    -10.93015193	      4.62646385	     -4.62927058	     10.92809052	     -2.21268617	     17.88153799	      8.03806686	     -8.03825584	    -17.88266149	      2.21270236	     65.69949918	     45.15758804	    -65.69927092	     22.25787238	    111.51985146	      1.66900869
